# xmcd
# 
# Track frame offsets:
#	150
#	25692
#	46292
# 
# Disc length: 954 seconds
# 
# Revision: 0
# Processed by: cddbd v1.5PL3 Copyright (c) Steve Scherf et al.
# Submitted via: DCT ver.1.1
# 
DISCID=1903b803
DTITLE=鈴木トオル - 祈り
DYEAR=1900
DGENRE=
TTITLE0=祈り
TTITLE1=for you...
TTITLE2=祈り(オリジナルカラオケ)
EXTD=
EXTT0=
EXTT1=
EXTT2=
PLAYORDER=
